<svg width="524.2" height="85.901" viewBox="0 0 524.2 85.901" xmlns="http://www.w3.org/2000/svg">
  <g id="svgGroup" stroke-linecap="round" fill-rule="evenodd" font-size="9pt" stroke="#8b0000" stroke-width="0.25mm" fill="#8b0000" style="stroke:#8b0000;stroke-width:0.25mm;fill:#8b0000">
    <path d="M 197 34.401 L 187 29.401 Q 186.3 27.701 185.55 26.201 Q 184.8 24.701 184 23.401 A 13.788 13.788 0 0 0 179.148 24.823 Q 175.795 26.572 173.9 30.301 A 25.695 25.695 0 0 0 171.836 36.106 Q 171.189 38.874 170.946 42.125 A 54.761 54.761 0 0 0 170.8 46.201 A 62.331 62.331 0 0 0 171.037 51.841 Q 171.554 57.504 173.194 61.107 A 15.242 15.242 0 0 0 173.8 62.301 A 1.487 1.487 0 0 1 174.005 62.25 Q 174.217 62.212 174.519 62.203 A 6.387 6.387 0 0 1 174.7 62.201 Q 177.7 61.901 179.85 59.951 A 16.33 16.33 0 0 0 182.413 56.961 A 20.363 20.363 0 0 0 183.55 55.051 Q 185.1 52.101 186.1 48.801 L 210.4 61.101 Q 206.8 71.901 200.8 78.201 A 22.238 22.238 0 0 1 191.184 84.056 A 32.623 32.623 0 0 1 184.1 85.401 Q 183.3 85.501 182.45 85.501 L 180.8 85.501 Q 173.8 85.501 167.05 83.051 Q 160.3 80.601 154.95 75.401 A 34.082 34.082 0 0 1 149.102 67.748 A 44.131 44.131 0 0 1 146.4 62.051 A 43.356 43.356 0 0 1 144.103 53.696 Q 143.383 49.601 143.237 44.923 A 77.562 77.562 0 0 1 143.2 42.501 A 59.994 59.994 0 0 1 144.381 30.435 A 53.586 53.586 0 0 1 145.3 26.651 Q 147.4 19.201 151.45 13.501 Q 155.5 7.801 161.25 4.251 A 28.463 28.463 0 0 1 172.471 0.301 A 33.855 33.855 0 0 1 174.3 0.101 Q 175.1 0.001 175.9 0.001 L 177.5 0.001 A 32.545 32.545 0 0 1 187.362 1.461 A 29.36 29.36 0 0 1 192.05 3.401 Q 198.6 6.801 203.35 12.401 Q 208.1 18.001 210.6 24.801 L 197 34.401 Z M 199.2 56.701 L 186.7 50.301 Q 185.8 53.201 184.2 56.101 Q 182.6 59.001 180.3 60.951 A 9.614 9.614 0 0 1 175.123 63.166 A 11.759 11.759 0 0 1 174.8 63.201 A 3.4 3.4 0 0 1 174.131 63.297 A 3.918 3.918 0 0 1 173.95 63.301 L 173 63.301 A 12.496 12.496 0 0 1 168.54 62.539 Q 165.501 61.387 163.467 58.494 A 14.058 14.058 0 0 1 163.2 58.101 Q 160.218 53.539 159.851 43.976 A 72.583 72.583 0 0 1 159.8 41.201 A 52.772 52.772 0 0 1 160.193 34.549 Q 160.619 31.203 161.507 28.429 A 23.646 23.646 0 0 1 163.2 24.401 A 12.685 12.685 0 0 1 171.819 17.781 A 17.451 17.451 0 0 1 174.2 17.401 L 175.3 17.401 A 12.425 12.425 0 0 1 178.544 17.801 A 8.829 8.829 0 0 1 182.95 20.501 Q 185.7 23.601 187.4 27.901 L 199.4 19.501 Q 197.6 14.701 194.75 10.501 Q 191.9 6.301 187.55 3.651 A 17.581 17.581 0 0 0 181.869 1.472 Q 179.558 1.001 176.9 1.001 L 175.7 1.001 A 8.285 8.285 0 0 0 174.993 1.032 A 10.601 10.601 0 0 0 174.4 1.101 Q 167.3 1.701 161.7 5.151 Q 156.1 8.601 152.2 14.201 Q 148.3 19.801 146.25 27.051 A 55.169 55.169 0 0 0 144.272 39.459 A 63.546 63.546 0 0 0 144.2 42.501 A 65.234 65.234 0 0 0 144.819 51.725 Q 145.639 57.467 147.55 62.201 A 33.41 33.41 0 0 0 151.233 69.045 A 25.765 25.765 0 0 0 157.05 75.001 A 23.361 23.361 0 0 0 170.1 79.472 A 29.02 29.02 0 0 0 171.4 79.501 L 172.65 79.501 A 9.251 9.251 0 0 0 173.653 79.445 A 10.52 10.52 0 0 0 174 79.401 A 31.574 31.574 0 0 0 180.874 78.148 Q 185.855 76.615 189.321 73.373 A 19.82 19.82 0 0 0 190.15 72.551 Q 195.819 66.586 199.106 56.978 A 60.436 60.436 0 0 0 199.2 56.701 Z M 44.3 83.201 L 34.3 78.201 L 27.2 65.401 L 27.2 83.601 L 10 85.101 L 0 80.101 L 0 4.101 L 25.1 1.901 Q 25.9 1.801 26.65 1.801 L 28.1 1.801 Q 33.9 1.801 39.3 3.601 Q 44.7 5.401 49 8.901 Q 53.3 12.401 55.8 17.351 A 23.272 23.272 0 0 1 58.102 25.164 A 29.131 29.131 0 0 1 58.3 28.601 A 34.027 34.027 0 0 1 57.174 37.643 A 22.636 22.636 0 0 1 46.7 51.501 L 63.6 81.601 L 44.3 83.201 Z M 51.9 75.701 L 35.3 46.101 Q 41.5 42.701 44.4 37.101 Q 47.173 31.747 47.294 24.291 A 42.225 42.225 0 0 0 47.3 23.601 Q 47.3 14.301 42.15 8.551 Q 37 2.801 27.7 2.801 L 26.5 2.801 A 8.285 8.285 0 0 0 25.793 2.832 A 10.601 10.601 0 0 0 25.2 2.901 L 1 5.001 L 1 79.101 L 16.2 77.801 L 16.2 51.401 L 20.5 51.001 L 34.8 77.201 L 51.9 75.701 Z M 120.4 81.801 L 115 79.201 Q 111.8 81.901 107.8 83.651 A 24.838 24.838 0 0 1 100.723 85.603 A 23.281 23.281 0 0 1 99.7 85.701 Q 98.6 85.801 97.55 85.851 Q 96.5 85.901 95.4 85.901 A 41.155 41.155 0 0 1 87.374 85.154 A 31.044 31.044 0 0 1 79.5 82.501 Q 72.7 79.101 69 72.801 A 26.315 26.315 0 0 1 65.842 64.072 A 35.83 35.83 0 0 1 65.3 57.701 A 25.906 25.906 0 0 1 66.388 50.101 A 23.19 23.19 0 0 1 67.95 46.251 A 32.652 32.652 0 0 1 73.342 38.723 A 38.521 38.521 0 0 1 75.3 36.801 A 37.069 37.069 0 0 1 72.981 33.533 Q 71.93 31.856 71.213 30.242 A 21.462 21.462 0 0 1 70.9 29.501 A 18.349 18.349 0 0 1 69.895 25.912 Q 69.5 23.704 69.5 21.101 A 22.249 22.249 0 0 1 70.512 14.314 A 20.097 20.097 0 0 1 71.85 11.101 Q 74.2 6.601 78.25 3.801 Q 82.3 1.001 87.4 0.501 A 13.866 13.866 0 0 1 88.151 0.427 Q 88.514 0.401 88.84 0.401 A 8.335 8.335 0 0 1 88.85 0.401 L 90.2 0.401 Q 96.9 0.401 102.7 3.201 Q 108.5 6.001 112.1 11.051 A 19.408 19.408 0 0 1 115.629 21.023 A 24.379 24.379 0 0 1 115.7 22.901 A 19.503 19.503 0 0 1 114.808 28.601 Q 114.091 30.952 112.8 33.401 L 118.7 32.901 L 128.7 37.901 Q 128.7 45.201 127.8 51.151 Q 126.9 57.101 125.2 62.101 L 140.9 80.101 L 120.4 81.801 Z M 128.7 74.201 L 114.1 57.401 Q 115.8 52.401 116.75 46.551 A 73.547 73.547 0 0 0 117.588 38.507 A 88.544 88.544 0 0 0 117.7 34.001 L 104.3 35.201 Q 104.3 37.901 104.1 40.351 Q 103.9 42.801 103.5 45.101 L 96 36.501 Q 100.1 32.001 102.4 27.101 Q 104.576 22.465 104.693 18.367 A 16.266 16.266 0 0 0 104.7 17.901 A 22.776 22.776 0 0 0 104.176 12.87 Q 103.367 9.295 101.307 6.681 A 14.109 14.109 0 0 0 100.6 5.851 A 13.521 13.521 0 0 0 92.663 1.662 A 19.563 19.563 0 0 0 89.4 1.401 L 88.5 1.401 Q 88 1.401 87.5 1.501 Q 82.7 1.901 78.85 4.601 Q 75 7.301 72.75 11.551 A 19.493 19.493 0 0 0 70.579 19.15 A 23.67 23.67 0 0 0 70.5 21.101 A 26.868 26.868 0 0 0 70.777 25.062 Q 71.145 27.526 72 29.551 Q 73.5 33.101 76.7 37.001 Q 71.8 41.201 69.05 46.301 A 23.15 23.15 0 0 0 66.354 55.953 A 27.767 27.767 0 0 0 66.3 57.701 A 31.282 31.282 0 0 0 67.017 64.591 Q 68.213 69.888 71.4 73.701 A 16.216 16.216 0 0 0 79.774 78.934 Q 82.475 79.679 85.723 79.784 A 33.419 33.419 0 0 0 86.8 79.801 L 88.35 79.801 A 10.301 10.301 0 0 0 89.712 79.713 A 9.469 9.469 0 0 0 89.8 79.701 A 24.315 24.315 0 0 0 104.859 72.778 A 32.111 32.111 0 0 0 106.5 71.101 L 110.7 75.801 L 128.7 74.201 Z M 268.9 66.201 L 268.2 66.201 Q 264.9 66.201 262.45 64.001 Q 260 61.801 258.9 58.701 L 247.6 65.701 A 23.469 23.469 0 0 0 251.004 72.476 Q 255.368 78.319 263.186 79.232 A 25.989 25.989 0 0 0 266.2 79.401 L 267.65 79.401 A 10.301 10.301 0 0 0 269.012 79.313 A 9.469 9.469 0 0 0 269.1 79.301 Q 279.3 78.501 284.45 73.651 A 16.088 16.088 0 0 0 289.345 64.086 A 22.916 22.916 0 0 0 289.6 60.601 Q 289.6 53.401 286.05 49.851 A 12.829 12.829 0 0 0 283.061 47.686 Q 280.013 46.036 275.228 45.019 A 52.806 52.806 0 0 0 273.6 44.701 L 268.4 43.801 A 34.774 34.774 0 0 1 266.825 43.474 Q 265.322 43.123 264.294 42.71 A 10.091 10.091 0 0 1 264.15 42.651 A 2.612 2.612 0 0 1 263.24 42.039 Q 262.773 41.541 262.646 40.79 A 3.561 3.561 0 0 1 262.6 40.201 L 262.6 39.901 Q 262.8 38.301 264.3 37.201 Q 265.8 36.101 268.8 35.901 L 269.6 35.901 Q 272.5 35.901 274.65 37.651 A 8.22 8.22 0 0 1 277.382 41.855 A 10.288 10.288 0 0 1 277.5 42.301 L 288.6 37.001 A 19.398 19.398 0 0 0 286.962 32.137 A 14.87 14.87 0 0 0 282.9 27.101 A 15.5 15.5 0 0 0 276.77 24.19 Q 274.312 23.601 271.4 23.601 L 270.05 23.601 A 9.251 9.251 0 0 0 269.047 23.657 A 10.521 10.521 0 0 0 268.7 23.701 Q 262.8 24.201 258.45 26.801 A 19.926 19.926 0 0 0 254.205 30.153 A 17.13 17.13 0 0 0 251.8 33.351 Q 249.5 37.301 249.5 42.101 Q 249.5 46.822 251.238 49.929 A 10.295 10.295 0 0 0 253 52.251 Q 256.5 55.701 264.1 56.801 L 269.8 57.601 A 16.52 16.52 0 0 1 271.462 57.889 Q 273.408 58.338 274.45 59.201 A 4.35 4.35 0 0 1 275.348 60.193 A 3.454 3.454 0 0 1 275.9 62.101 Q 275.9 63.793 274.552 64.731 A 4.207 4.207 0 0 1 274.2 64.951 Q 272.5 65.901 268.9 66.201 Z M 349.8 67.501 L 346.6 83.901 A 172.351 172.351 0 0 0 342.69 84.114 A 155.993 155.993 0 0 0 342.15 84.151 Q 340 84.301 338 84.301 A 61.975 61.975 0 0 1 330.598 83.889 Q 322.556 82.919 317.773 79.659 A 17.464 17.464 0 0 1 317 79.101 Q 311.146 74.624 310.332 65.183 A 37.042 37.042 0 0 1 310.2 62.001 L 310.2 42.901 L 303.8 39.701 L 303.8 24.601 L 310.2 24.101 L 310.2 7.801 L 326.4 6.301 L 336.4 11.301 L 336.4 22.801 L 344.7 26.901 L 344.7 42.001 L 336.4 42.701 L 336.4 62.801 L 339.8 62.501 L 349.8 67.501 Z M 512.3 61.601 L 500.1 58.101 Q 499.2 61.501 496.8 63.701 A 9.748 9.748 0 0 1 492.759 65.897 A 13.176 13.176 0 0 1 490.6 66.301 L 489.8 66.301 Q 486.4 66.301 484.2 63.801 A 8.34 8.34 0 0 1 482.452 60.498 Q 482.099 59.245 482.022 57.754 A 16.511 16.511 0 0 1 482 56.901 L 513.1 54.201 A 19.649 19.649 0 0 0 513.2 52.31 A 18.105 18.105 0 0 0 513.2 52.251 L 513.2 50.401 A 47.335 47.335 0 0 0 512.626 42.777 Q 511.967 38.75 510.554 35.506 A 22.118 22.118 0 0 0 507.8 30.801 Q 502.4 23.801 492.9 23.801 L 491.85 23.801 A 6.722 6.722 0 0 0 491.015 23.855 A 7.842 7.842 0 0 0 490.7 23.901 Q 484 24.401 478.7 28.151 A 24.381 24.381 0 0 0 471.606 36.06 A 29.858 29.858 0 0 0 470.4 38.401 A 31.327 31.327 0 0 0 468.059 45.984 Q 467.441 49.401 467.403 53.281 A 52.188 52.188 0 0 0 467.4 53.801 A 45.806 45.806 0 0 0 467.911 60.887 Q 469.122 68.601 473.2 73.101 A 19.164 19.164 0 0 0 485.975 79.374 A 26.566 26.566 0 0 0 488.6 79.501 L 490 79.501 Q 490.7 79.501 491.4 79.401 Q 500 78.701 505.05 73.801 A 27.347 27.347 0 0 0 511.705 63.388 A 32.808 32.808 0 0 0 512.3 61.601 Z M 299.8 42.501 L 287.4 48.401 A 32.923 32.923 0 0 1 292.886 51.764 A 26.048 26.048 0 0 1 296.95 55.601 Q 300.6 59.901 300.6 65.601 A 21.895 21.895 0 0 1 299.784 71.73 A 16.744 16.744 0 0 1 295.25 79.251 A 18.904 18.904 0 0 1 289.303 83.045 Q 286.646 84.147 283.364 84.753 A 42.69 42.69 0 0 1 279.2 85.301 Q 278.3 85.401 277.4 85.451 Q 276.5 85.501 275.6 85.501 A 36.089 36.089 0 0 1 266.459 84.392 A 28.461 28.461 0 0 1 257.15 80.101 A 28.731 28.731 0 0 1 246.724 66.39 A 35.544 35.544 0 0 1 246.3 65.201 L 259.1 57.401 A 26.035 26.035 0 0 1 255.292 55.264 Q 253.271 53.88 251.833 52.228 A 15.175 15.175 0 0 1 251.2 51.451 A 12.853 12.853 0 0 1 248.896 46.326 A 18.461 18.461 0 0 1 248.5 42.401 L 248.5 42.101 Q 248.6 37.101 251 32.901 A 18.95 18.95 0 0 1 256.545 26.846 A 22.817 22.817 0 0 1 257.9 25.951 A 21.779 21.779 0 0 1 264.189 23.392 A 28.541 28.541 0 0 1 268.6 22.701 Q 269.4 22.601 270.15 22.601 L 271.6 22.601 A 35.967 35.967 0 0 1 280.606 23.774 A 39.847 39.847 0 0 1 280.9 23.851 Q 285.6 25.101 289.7 27.551 Q 293.8 30.001 296.5 33.751 A 18.079 18.079 0 0 1 299.59 41.119 A 21.812 21.812 0 0 1 299.8 42.501 Z M 335.7 78.001 L 338.5 63.701 L 334.65 64.051 Q 333 64.201 331.6 64.201 A 18.161 18.161 0 0 1 329.922 64.13 Q 327.209 63.877 326.415 62.723 A 1.867 1.867 0 0 1 326.4 62.701 A 4.43 4.43 0 0 1 325.894 61.616 Q 325.4 60.102 325.4 57.501 L 325.4 36.801 L 333.7 36.101 L 333.7 23.001 L 325.4 23.701 L 325.4 7.401 L 311.2 8.701 L 311.2 25.001 L 304.8 25.501 L 304.8 38.601 L 311.2 38.101 L 311.2 62.001 Q 311.2 66.048 311.883 69.003 A 16.278 16.278 0 0 0 312.7 71.601 Q 314.2 75.201 317.85 76.801 A 15.798 15.798 0 0 0 320.696 77.712 Q 323.639 78.379 327.734 78.4 A 52.115 52.115 0 0 0 328 78.401 A 65.117 65.117 0 0 0 330.432 78.353 A 77.008 77.008 0 0 0 331.6 78.301 Q 333.5 78.201 335.7 78.001 Z M 513.6 61.001 L 523.7 65.801 A 38.535 38.535 0 0 1 520.608 72.973 A 29.149 29.149 0 0 1 515.75 79.401 A 19.951 19.951 0 0 1 507.484 84.257 A 28.651 28.651 0 0 1 501.5 85.401 Q 500.4 85.501 499.35 85.551 Q 498.3 85.601 497.2 85.601 Q 488.5 85.601 481.55 82.051 Q 474.6 78.501 470.5 71.401 Q 466.656 64.745 466.416 55.1 A 52.176 52.176 0 0 1 466.4 53.801 A 45.185 45.185 0 0 1 467.003 46.229 Q 467.748 41.848 469.413 38.196 A 28.124 28.124 0 0 1 469.55 37.901 Q 472.7 31.201 478.15 27.351 A 24.821 24.821 0 0 1 490.491 22.91 A 29.225 29.225 0 0 1 490.6 22.901 A 10.188 10.188 0 0 1 491.956 22.801 A 11.175 11.175 0 0 1 492.05 22.801 L 493.5 22.801 Q 499.1 22.801 504.55 24.751 Q 510 26.701 514.45 30.801 A 27.179 27.179 0 0 1 519.668 37.46 A 34.463 34.463 0 0 1 521.55 41.351 A 33.423 33.423 0 0 1 523.517 48.318 Q 524.093 51.619 524.183 55.389 A 59.107 59.107 0 0 1 524.2 56.801 L 524.2 58.451 Q 524.2 59.301 524.1 60.101 L 513.6 61.001 Z M 429.3 84.501 L 419.3 79.501 L 419.3 24.601 L 435.4 23.101 L 437.9 24.301 Q 440.9 21.301 444.9 21.001 L 446.2 21.001 A 20.574 20.574 0 0 1 448.394 21.114 A 17.425 17.425 0 0 1 449.4 21.251 A 64.65 64.65 0 0 1 452.125 21.763 A 59.055 59.055 0 0 1 452.3 21.801 L 462.3 26.801 L 464.2 44.001 A 34.264 34.264 0 0 0 461.332 43.013 Q 459.898 42.594 458.631 42.391 A 14.142 14.142 0 0 0 456.4 42.201 L 455.35 42.201 A 5.459 5.459 0 0 0 454.489 42.267 A 4.903 4.903 0 0 0 454.3 42.301 A 7.937 7.937 0 0 0 450.088 43.954 A 9.621 9.621 0 0 0 449.9 44.101 A 11.144 11.144 0 0 0 446.823 47.998 A 12.868 12.868 0 0 0 446.75 48.151 Q 445.6 50.601 445.6 53.201 L 445.6 83.001 L 429.3 84.501 Z M 387.9 85.301 Q 386.9 85.401 385.85 85.451 Q 384.8 85.501 383.7 85.501 Q 374.7 85.501 367.8 81.801 Q 360.9 78.101 357.05 70.951 Q 353.2 63.801 353.2 53.701 A 41.424 41.424 0 0 1 354.453 43.382 A 36.917 36.917 0 0 1 355.85 39.051 Q 358.5 32.301 363.95 27.901 A 22.458 22.458 0 0 1 372.331 23.719 A 30.466 30.466 0 0 1 377.7 22.801 Q 378.5 22.701 379.3 22.701 L 380.9 22.701 Q 387.3 22.701 392.95 25.001 Q 398.6 27.301 402.95 31.501 Q 407.3 35.701 409.8 41.551 A 31.256 31.256 0 0 1 412.144 51.029 A 37.854 37.854 0 0 1 412.3 54.501 A 41.424 41.424 0 0 1 411.047 64.82 A 36.917 36.917 0 0 1 409.65 69.151 Q 407 75.901 401.6 80.201 A 22.78 22.78 0 0 1 393.717 84.209 A 31.384 31.384 0 0 1 387.9 85.301 Z M 434.6 77.201 L 434.6 48.201 Q 434.6 45.301 435.9 42.651 Q 437.2 40.001 439.4 38.251 A 9.168 9.168 0 0 1 442.115 36.732 A 8.299 8.299 0 0 1 444.2 36.301 Q 444.8 36.201 445.4 36.201 L 446.5 36.201 A 16.316 16.316 0 0 1 448.652 36.337 A 13.552 13.552 0 0 1 449.85 36.551 A 23.715 23.715 0 0 1 452.551 37.337 A 26.531 26.531 0 0 1 453 37.501 L 451.3 22.701 A 56.588 56.588 0 0 0 450.569 22.544 Q 450.241 22.475 449.873 22.402 A 114.503 114.503 0 0 0 449.1 22.251 A 13.483 13.483 0 0 0 447.634 22.056 A 17.935 17.935 0 0 0 446.2 22.001 L 445 22.001 A 9.754 9.754 0 0 0 440.253 23.749 A 13.277 13.277 0 0 0 438.55 25.151 A 13.272 13.272 0 0 0 434.994 31.194 A 16.544 16.544 0 0 0 434.7 32.401 L 434.4 32.401 L 434.4 24.201 L 420.3 25.501 L 420.3 78.501 L 434.6 77.201 Z M 377.8 79.301 A 28.767 28.767 0 0 0 384.052 78.087 A 21.193 21.193 0 0 0 391 74.401 Q 396.2 70.201 398.75 63.651 A 37.973 37.973 0 0 0 401.25 51.617 A 44.037 44.037 0 0 0 401.3 49.501 A 40.713 40.713 0 0 0 400.702 42.371 A 31.909 31.909 0 0 0 399.05 36.401 A 21.399 21.399 0 0 0 395.304 30.073 A 19.598 19.598 0 0 0 392.15 27.151 Q 387.618 23.788 380.664 23.703 A 29.647 29.647 0 0 0 380.3 23.701 L 379.1 23.701 A 8.285 8.285 0 0 0 378.393 23.732 A 10.601 10.601 0 0 0 377.8 23.801 A 28.395 28.395 0 0 0 371.33 25.092 A 21.324 21.324 0 0 0 364.55 28.751 Q 359.3 33.001 356.75 39.501 A 37.274 37.274 0 0 0 354.322 50.389 A 44.267 44.267 0 0 0 354.2 53.701 A 38.918 38.918 0 0 0 354.925 61.361 A 31.762 31.762 0 0 0 356.5 66.751 A 21.487 21.487 0 0 0 360.048 72.8 A 19.285 19.285 0 0 0 363.5 76.001 A 17.451 17.451 0 0 0 370.264 78.913 A 24.7 24.7 0 0 0 375.3 79.401 L 376.5 79.401 A 8.285 8.285 0 0 0 377.207 79.369 A 10.601 10.601 0 0 0 377.8 79.301 Z M 377.8 65.501 L 376.9 65.501 Q 373.2 65.501 371.15 62.301 A 10.497 10.497 0 0 1 369.993 59.722 Q 369.222 57.22 369.117 53.582 A 40.779 40.779 0 0 1 369.1 52.401 Q 369.1 45.779 371.158 42.245 A 9.711 9.711 0 0 1 371.4 41.851 A 8.951 8.951 0 0 1 373.805 39.314 A 8.306 8.306 0 0 1 377.8 37.901 L 378.7 37.901 A 6.882 6.882 0 0 1 381.461 38.436 Q 383.224 39.199 384.4 41.051 A 10.342 10.342 0 0 1 385.518 43.557 Q 386.279 46.027 386.384 49.631 A 40.54 40.54 0 0 1 386.4 50.801 Q 386.4 57.633 384.257 61.273 A 10.153 10.153 0 0 1 384.15 61.451 A 8.994 8.994 0 0 1 381.97 63.916 A 7.996 7.996 0 0 1 377.8 65.501 Z M 16.2 37.701 L 16.2 18.101 L 22.8 17.501 L 23.9 17.501 A 9.25 9.25 0 0 1 26.675 17.901 A 7.709 7.709 0 0 1 29.45 19.451 A 5.631 5.631 0 0 1 30.948 21.603 Q 31.677 23.371 31.699 26.034 A 20.163 20.163 0 0 1 31.7 26.201 A 16.744 16.744 0 0 1 31.442 29.24 Q 30.913 32.103 29.3 33.951 A 9.089 9.089 0 0 1 24.278 36.868 A 12.317 12.317 0 0 1 22.8 37.101 L 16.2 37.701 Z M 84.7 46.201 L 97.5 60.801 Q 95.9 62.801 93.9 64.051 A 10.159 10.159 0 0 1 91.618 65.125 A 8.615 8.615 0 0 1 89.8 65.501 A 4.142 4.142 0 0 0 89.447 65.517 A 5.3 5.3 0 0 0 89.15 65.551 Q 88.8 65.601 88.5 65.601 A 10.215 10.215 0 0 1 85.969 65.305 A 6.895 6.895 0 0 1 82.35 63.101 A 8.61 8.61 0 0 1 80.503 59.354 Q 80.202 58.051 80.2 56.525 A 15.697 15.697 0 0 1 80.2 56.501 A 13.486 13.486 0 0 1 84.288 46.599 A 16.618 16.618 0 0 1 84.7 46.201 Z M 380.7 63.601 A 7.369 7.369 0 0 0 383.677 60.366 Q 385.4 56.977 385.4 50.801 Q 385.4 47.301 384.8 44.801 A 4.085 4.085 0 0 0 381.852 46.815 A 7.271 7.271 0 0 0 381.15 48.351 A 16.168 16.168 0 0 0 380.596 50.588 Q 380.17 52.957 380.11 56.286 A 61.923 61.923 0 0 0 380.1 57.401 Q 380.1 61.001 380.7 63.601 Z M 498.5 44.301 L 482.5 45.701 Q 482.5 42.401 484.8 40.001 A 8.737 8.737 0 0 1 490.009 37.379 A 11.346 11.346 0 0 1 490.7 37.301 L 491.6 37.301 A 8.43 8.43 0 0 1 493.934 37.609 A 6.584 6.584 0 0 1 496.55 39.051 Q 498.292 40.614 498.478 43.575 A 11.604 11.604 0 0 1 498.5 44.301 Z M 84.3 19.601 L 84.3 19.101 A 5.437 5.437 0 0 1 84.526 17.502 A 4.488 4.488 0 0 1 85.4 15.901 A 4.195 4.195 0 0 1 87.771 14.502 A 5.675 5.675 0 0 1 88.4 14.401 L 88.8 14.401 Q 90.6 14.401 91.6 15.501 Q 92.549 16.545 92.597 18.31 A 6.993 6.993 0 0 1 92.6 18.501 A 5.844 5.844 0 0 1 92.424 19.867 Q 92.269 20.513 91.975 21.23 A 14.602 14.602 0 0 1 91.35 22.551 A 27.848 27.848 0 0 1 89.759 25.166 A 36.772 36.772 0 0 1 88.1 27.401 A 28.914 28.914 0 0 1 86.031 24.245 A 25.659 25.659 0 0 1 85.55 23.351 A 14.806 14.806 0 0 1 84.848 21.773 Q 84.554 20.983 84.405 20.252 A 7.869 7.869 0 0 1 84.3 19.601 Z M 262.9 59.001 L 269.4 62.201 A 64.039 64.039 0 0 1 269.962 63.557 A 69.939 69.939 0 0 1 270 63.651 A 7.787 7.787 0 0 0 270.437 64.571 A 6.582 6.582 0 0 0 270.7 65.001 A 13.392 13.392 0 0 0 272.081 64.741 Q 273.462 64.398 274.162 63.812 A 1.943 1.943 0 0 0 274.8 62.901 L 274.45 62.501 Q 274.15 62.157 273.812 62.035 A 1.141 1.141 0 0 0 273.7 62.001 Q 270.6 61.201 267.9 60.501 Q 265.2 59.801 262.9 59.001 Z M 27.2 24.001 L 27.2 34.601 Q 30.285 32.397 30.651 27.553 A 17.957 17.957 0 0 0 30.7 26.201 A 17.337 17.337 0 0 0 30.684 25.445 A 13.821 13.821 0 0 0 30.65 24.901 Q 30.6 24.301 30.5 23.701 L 27.2 24.001 Z M 276.8 43.701 L 276.4 41.701 Q 276.171 41.624 275.707 41.606 A 7.948 7.948 0 0 0 275.4 41.601 Q 274.1 41.601 273 42.301 Q 272.155 42.839 271.782 43.259 A 1.644 1.644 0 0 0 271.6 43.501 Q 274.2 43.901 276.65 44.551 A 55.749 55.749 0 0 1 280.466 45.706 A 49.493 49.493 0 0 1 281.3 46.001 L 276.8 43.701 Z M 496.5 62.501 L 490.6 63.101 A 1.222 1.222 0 0 0 490.727 63.632 Q 490.839 63.866 491.05 64.101 Q 491.5 64.601 492 65.101 A 14.037 14.037 0 0 0 493.131 64.738 Q 493.667 64.539 494.104 64.315 A 5.887 5.887 0 0 0 494.8 63.901 A 14.898 14.898 0 0 0 495.712 63.212 A 10.873 10.873 0 0 0 496.5 62.501 Z" vector-effect="non-scaling-stroke"/>
  </g>
</svg>
